<?xml version="1.0" encoding="UTF-8"?><svg id="a" xmlns="http://www.w3.org/2000/svg" xmlns:xlink="http://www.w3.org/1999/xlink" viewBox="0 0 38.68 29.93"><defs><style>.g{fill:url(#e);}.h{fill:#eaeaea;}</style><linearGradient id="e" x1="-564.05" y1="596.27" x2="-564.94" y2="595.67" gradientTransform="translate(21855.03 17852.26) scale(38.68 -29.93)" gradientUnits="userSpaceOnUse"><stop offset="0" stop-color="#3ac2e9"/><stop offset=".47" stop-color="#c471ed"/><stop offset="1" stop-color="#f64f59"/></linearGradient></defs><g id="b"><path id="c" class="h" d="M32.76,2.51c-2.54-1.19-5.22-2.03-7.98-2.51-.38,.69-.72,1.4-1.02,2.12-2.93-.45-5.91-.45-8.84,0-.31-.72-.65-1.43-1.03-2.12-2.76,.48-5.44,1.32-7.98,2.51C1.39,9.06-.64,17,.18,24.91c2.95,2.22,6.26,3.92,9.78,5.01,.79-1.09,1.5-2.24,2.1-3.45-1.15-.44-2.25-.97-3.3-1.61,.28-.2,.55-.42,.81-.64,6.18,2.98,13.38,2.98,19.56,0,.26,.22,.53,.43,.81,.64-1.05,.63-2.16,1.17-3.31,1.61,.6,1.21,1.31,2.36,2.1,3.45,3.53-1.09,6.83-2.79,9.78-5.02,.81-7.92-1.23-15.86-5.75-22.41ZM12.92,20.4c-2.04-.15-3.59-1.91-3.48-3.95-.13-2.05,1.43-3.82,3.48-3.96,2.04,.12,3.6,1.88,3.48,3.93v.03c.13,2.05-1.43,3.82-3.48,3.95Zm12.85,0c-2.04-.15-3.59-1.91-3.48-3.95-.13-2.05,1.43-3.82,3.48-3.96,2.04,.12,3.6,1.88,3.48,3.93v.03c.13,2.05-1.43,3.82-3.48,3.95h0Z"/></g><g id="d"><path id="f" class="g" d="M32.76,2.51c-2.54-1.19-5.22-2.03-7.98-2.51-.38,.69-.72,1.4-1.02,2.12-2.93-.45-5.91-.45-8.84,0-.31-.72-.65-1.43-1.03-2.12-2.76,.48-5.44,1.32-7.98,2.51C1.39,9.06-.64,17,.18,24.91c2.95,2.22,6.26,3.92,9.78,5.01,.79-1.09,1.5-2.24,2.1-3.45-1.15-.44-2.25-.97-3.3-1.61,.28-.2,.55-.42,.81-.64,6.18,2.98,13.38,2.98,19.56,0,.26,.22,.53,.43,.81,.64-1.05,.63-2.16,1.17-3.31,1.61,.6,1.21,1.31,2.36,2.1,3.45,3.53-1.09,6.83-2.79,9.78-5.02,.81-7.92-1.23-15.86-5.75-22.41ZM12.92,20.4c-2.04-.15-3.59-1.91-3.48-3.95-.13-2.05,1.43-3.82,3.48-3.96,2.04,.12,3.6,1.88,3.48,3.93v.03c.13,2.05-1.43,3.82-3.48,3.95Zm12.85,0c-2.04-.15-3.59-1.91-3.48-3.95-.13-2.05,1.43-3.82,3.48-3.96,2.04,.12,3.6,1.88,3.48,3.93v.03c.13,2.05-1.43,3.82-3.48,3.95h0Z"/></g></svg>