<?xml version="1.0" encoding="UTF-8"?><svg id="a" xmlns="http://www.w3.org/2000/svg" xmlns:xlink="http://www.w3.org/1999/xlink" viewBox="0 0 34.44 38.34"><defs><style>.g{fill:url(#e);}.h{fill:#eaeaea;}</style><linearGradient id="e" x1="-564.26" y1="604.95" x2="-564.83" y2="603.95" gradientTransform="translate(19369.82 23193.56) scale(34.28 -38.34)" gradientUnits="userSpaceOnUse"><stop offset="0" stop-color="#3ac2e9"/><stop offset=".48" stop-color="#c471ed"/><stop offset="1" stop-color="#f64f59"/></linearGradient></defs><g id="b" transform="translate(0.158)"><path id="c" class="h" d="M12.3,38.34h12.41v-1.19s.03-3.52,.03-6.86c.14-1.71-.48-3.39-1.68-4.61,5.55-.62,11.38-2.74,11.38-12.32,.04-2.48-.88-4.88-2.56-6.7,.76-2.15,.67-4.52-.25-6.61,0,0-2.09-.69-6.86,2.56-4.08-1.12-8.39-1.12-12.47,0C7.53-.6,5.45,.06,5.45,.06c-.92,2.09-1.01,4.45-.25,6.61-1.68,1.83-2.59,4.22-2.56,6.7,0,9.54,5.8,11.69,11.35,12.32-.92,.88-1.48,2.07-1.59,3.34-2.57,1.44-5.82,.52-7.26-2.04h0c-.79-1.44-2.22-2.39-3.84-2.57-2.09,.03-.84,1.18,.03,1.65,1.13,.95,2,2.16,2.56,3.52,.5,1.4,2.12,4.08,8.39,2.93,0,2.09,.03,4.65,.03,4.65v1.19Z"/></g><g id="d"><path id="f" class="g" d="M12.14,38.34h12.41v-1.19s.03-3.52,.03-6.86c.14-1.71-.48-3.39-1.68-4.61,5.55-.62,11.38-2.74,11.38-12.32,.04-2.48-.88-4.88-2.56-6.7,.76-2.15,.67-4.52-.25-6.61,0,0-2.09-.69-6.86,2.56-4.08-1.12-8.39-1.12-12.47,0C7.38-.6,5.29,.06,5.29,.06c-.92,2.09-1.01,4.45-.25,6.61-1.68,1.83-2.59,4.22-2.56,6.7,0,9.54,5.8,11.69,11.35,12.32-.92,.88-1.48,2.07-1.59,3.34-2.57,1.44-5.82,.52-7.26-2.04h0c-.79-1.44-2.22-2.39-3.84-2.57-2.09,.03-.84,1.18,.03,1.65,1.13,.95,2,2.16,2.56,3.52,.5,1.4,2.12,4.08,8.39,2.93,0,2.09,.03,4.65,.03,4.65v1.19Z"/></g></svg>