<?xml version="1.0" encoding="UTF-8"?><svg id="a" xmlns="http://www.w3.org/2000/svg" xmlns:xlink="http://www.w3.org/1999/xlink" viewBox="0 0 34.92 25.95"><defs><style>.e{fill:url(#c);}.f{fill:#eaeaea;}</style><linearGradient id="c" x1="-564.19" y1="591.39" x2="-565.19" y2="590.43" gradientTransform="translate(19555.2 15348.53) scale(34.6 -25.95)" gradientUnits="userSpaceOnUse"><stop offset="0" stop-color="#3ac2e9"/><stop offset=".51" stop-color="#c471ed"/><stop offset="1" stop-color="#f64f59"/></linearGradient></defs><path id="b" class="f" d="M.32,3.05v-.89C.32,.97,1.28,0,2.48,0h30.28c1.19,0,2.16,.97,2.16,2.16v.89L17.62,13.86,.32,3.05Zm17.87,13.01c-.35,.22-.8,.22-1.15,0L.32,5.6V23.79c0,1.19,.97,2.16,2.16,2.16h30.28c1.19,0,2.16-.97,2.16-2.16V5.6l-16.73,10.46Z"/><path id="d" class="e" d="M0,3.05v-.89C0,.97,.97,0,2.16,0h30.28c1.19,0,2.16,.97,2.16,2.16v.89L17.3,13.86,0,3.05Zm17.87,13.01c-.35,.22-.8,.22-1.15,0L0,5.6V23.79c0,1.19,.97,2.16,2.16,2.16h30.28c1.19,0,2.16-.97,2.16-2.16V5.6l-16.73,10.46Z"/></svg>