<?xml version="1.0" encoding="UTF-8"?><svg id="a" xmlns="http://www.w3.org/2000/svg" xmlns:xlink="http://www.w3.org/1999/xlink" viewBox="0 0 27.93 28.05"><defs><style>.e{fill:url(#c);}.f{fill:#eaeaea;}</style><linearGradient id="c" x1="-563.01" y1="594.01" x2="-563.87" y2="593.14" gradientTransform="translate(15752.13 16591.99) scale(27.93 -27.93)" gradientUnits="userSpaceOnUse"><stop offset="0" stop-color="#3ac2e9"/><stop offset=".48" stop-color="#c471ed"/><stop offset="1" stop-color="#f64f59"/></linearGradient></defs><path id="b" class="f" d="M26.91,1.34L21.24,.03c-.62-.14-1.25,.18-1.5,.76l-2.62,6.11c-.23,.54-.08,1.16,.38,1.53l3.31,2.71c-2,4.25-5.42,7.66-9.67,9.67l-2.71-3.31c-.37-.45-.99-.6-1.53-.38L.8,19.74c-.58,.25-.9,.89-.76,1.51l1.31,5.67c.14,.59,.66,1.01,1.27,1.01,13.98,0,25.31-11.33,25.31-25.31h0c0-.62-.42-1.15-1.01-1.28Z"/><path id="d" class="e" d="M26.91,1.46L21.24,.16c-.62-.14-1.25,.18-1.5,.76l-2.62,6.11c-.23,.54-.08,1.16,.38,1.53l3.31,2.71c-2,4.25-5.42,7.66-9.67,9.67l-2.71-3.31c-.37-.45-.99-.6-1.53-.38L.8,19.86c-.58,.25-.9,.89-.76,1.51l1.31,5.67c.14,.59,.66,1.01,1.27,1.01,13.98,0,25.31-11.33,25.31-25.31h0c0-.62-.42-1.15-1.01-1.28Z"/></svg>