<?xml version="1.0" encoding="UTF-8"?><svg id="a" xmlns="http://www.w3.org/2000/svg" xmlns:xlink="http://www.w3.org/1999/xlink" viewBox="0 0 38.66 31.42"><defs><style>.e{fill:url(#c);}.f{fill:#eaeaea;}</style><linearGradient id="c" x1="-564.11" y1="598.45" x2="-565.11" y2="597.57" gradientTransform="translate(21843.96 18800.11) scale(38.66 -31.42)" gradientUnits="userSpaceOnUse"><stop offset="0" stop-color="#3ac2e9"/><stop offset=".53" stop-color="#c471ed"/><stop offset="1" stop-color="#f64f59"/></linearGradient></defs><path id="b" class="f" d="M38.66,3.72c-1.45,.64-2.98,1.06-4.56,1.25,1.66-.99,2.9-2.55,3.49-4.39-1.56,.92-3.26,1.57-5.04,1.93-3-3.2-8.02-3.36-11.22-.36-2.06,1.94-2.94,4.83-2.3,7.59C12.66,9.42,6.72,6.41,2.69,1.45,.59,5.08,1.66,9.71,5.14,12.04c-1.26-.04-2.49-.38-3.59-.99-.05,3.81,2.62,7.12,6.36,7.88-1.17,.32-2.39,.36-3.58,.14,1.04,3.23,4.02,5.44,7.41,5.51-3.33,2.61-7.55,3.79-11.74,3.28,3.63,2.33,7.85,3.57,12.16,3.56,14.73,0,23.05-12.44,22.55-23.59,1.55-1.12,2.89-2.51,3.96-4.11h0Z"/><path id="d" class="e" d="M38.66,3.72c-1.45,.64-2.98,1.06-4.56,1.25,1.66-.99,2.9-2.55,3.49-4.39-1.56,.92-3.26,1.57-5.04,1.93-3-3.2-8.02-3.36-11.22-.36-2.06,1.94-2.94,4.83-2.3,7.59C12.66,9.42,6.72,6.41,2.69,1.45,.59,5.08,1.66,9.71,5.14,12.04c-1.26-.04-2.49-.38-3.59-.99-.05,3.81,2.62,7.12,6.36,7.88-1.17,.32-2.39,.36-3.58,.14,1.04,3.23,4.02,5.44,7.41,5.51-3.33,2.61-7.55,3.79-11.74,3.28,3.63,2.33,7.85,3.57,12.16,3.56,14.73,0,23.05-12.44,22.55-23.59,1.55-1.12,2.89-2.51,3.96-4.11h0Z"/></svg>